<?xml version="1.0" encoding="utf-8"?>
<!-- Generator: Adobe Illustrator 16.0.0, SVG Export Plug-In . SVG Version: 6.00 Build 0)  -->
<!DOCTYPE svg PUBLIC "-//W3C//DTD SVG 1.1//EN" "http://www.w3.org/Graphics/SVG/1.1/DTD/svg11.dtd">
<svg version="1.1" id="Layer_1" xmlns="http://www.w3.org/2000/svg" xmlns:xlink="http://www.w3.org/1999/xlink" x="0px" y="0px"
	 width="864px" height="864px" viewBox="0 0 864 864" enable-background="new 0 0 864 864" xml:space="preserve">
<g>
	<path d="M817.628,407.389c-1.138-9.887-2.377-19.768-3.261-29.679c-1.784-20.005-6.822-39.281-12.998-58.276
		c-9.587-29.485-21.795-57.786-38.073-84.299c-11.991-19.531-24.761-38.48-40.272-55.366c-9.859-10.735-20.558-20.699-30.854-31.035
		c-13.109-13.162-27.682-24.57-43.246-34.582c-19.478-12.53-38.913-25.372-60.707-33.615c-21.227-8.027-42.509-16.22-64.348-22.224
		c-16.084-4.421-33.094-5.517-49.715-7.931c-6.674-0.969-13.413-1.478-20.114-2.267c-0.585-0.069-1.105-0.662-1.657-1.013
		c-13.004,0-26.007,0-39.01,0c-0.912,0.36-1.8,0.947-2.739,1.046c-14.496,1.513-29.184,1.979-43.45,4.682
		c-17.085,3.236-34.076,7.555-50.619,12.911c-16.566,5.364-33.105,11.449-48.613,19.282c-19.521,9.861-38.81,20.642-56.676,33.193
		c-18.282,12.842-35.295,27.685-51.765,42.844c-10.563,9.723-19.421,21.375-28.544,32.57
		c-15.807,19.396-28.584,40.835-40.476,62.763c-12.836,23.671-21.912,48.952-29.72,74.621c-6.4,21.039-9.715,42.75-11.553,64.678
		c-0.375,4.476-1.393,8.897-2.115,13.344c0,16.255,0,32.509,0,48.763c1.083,7.801,2.125,15.607,3.259,23.401
		c1.607,11.03,2.42,22.27,5.129,33.026c4.079,16.194,9.367,32.092,14.386,48.039c9.848,31.285,25.566,59.762,43.625,86.834
		c16.473,24.694,35.57,47.271,57.911,67.177c16.104,14.348,32.439,28.233,50.794,39.522c14.596,8.979,29.083,18.432,44.591,25.562
		c24.926,11.457,50.554,21.575,77.52,27.36c13.622,2.921,27.516,4.609,41.32,6.633c7.028,1.029,14.131,1.549,21.194,2.356
		c0.404,0.047,0.749,0.615,1.121,0.94c16.616,0,33.231,0,49.847,0c7.809-1.084,15.639-2.038,23.422-3.277
		c15.881-2.529,31.854-4.664,47.56-8.032c9.739-2.088,19.154-5.877,28.538-9.38c14.039-5.243,28.546-9.722,41.725-16.667
		c19.677-10.37,39.097-21.569,57.273-34.343c17.553-12.335,33.98-26.471,49.776-41.036c10.56-9.735,19.389-21.408,28.57-32.562
		c15.808-19.203,28.487-40.543,40.337-62.289c12.803-23.497,21.932-48.597,29.627-74.209c6.447-21.456,10.094-43.402,11.906-65.702
		c0.365-4.479,1.395-8.904,2.117-13.354c0-16.254,0-32.508,0-48.763C818.299,408.489,817.695,407.97,817.628,407.389z
		 M793.666,420.771c-2.564-2.697-5.071-5.451-7.699-8.085c-18.35-18.388-36.707-36.771-55.117-55.097
		c-2.264-2.254-3.372-3.995-2.328-7.753c7.996-28.804,15.545-57.732,23.655-88.207C778.41,312.151,793.809,364.073,793.666,420.771z
		 M560.303,646.934c-3.529,3.439-9.77,4.399-14.947,5.796c-26.555,7.167-53.174,14.103-79.773,21.11
		c-1.667,0.439-3.354,0.809-5.131,1.234c19.832-42.41,34.635-85.347,24.619-132.254c14.464,7.428,28.735,16.247,44.111,22.229
		c15.391,5.987,31.885,9.14,48.504,13.701c-6.258-34.326-16.258-65.856-37.602-93.773c48.792,10.355,92.284-4.195,135.162-24.655
		c-2.9,10.992-5.775,21.995-8.707,32.985c-5.628,21.115-11.261,42.229-16.994,63.315c-0.389,1.434-1.412,2.843-2.486,3.921
		C618.236,589.437,589.527,618.449,560.303,646.934z M636.519,605.812c-1.924,6.627-4.036,14.218-6.403,21.728
		c-0.363,1.151-1.753,2.435-2.933,2.798c-7.369,2.266-14.813,4.287-21.403,6.155C615.896,626.396,626.428,615.885,636.519,605.812z
		 M525.77,681.857c-6.999,6.988-12.881,13.106-19.113,18.846c-1.055,0.973-3.727,0.764-5.456,0.328
		c-7.651-1.932-15.233-4.145-23.557-6.453C493.705,690.332,508.967,686.299,525.77,681.857z M372.5,666.563
		c-21.117-5.632-42.229-11.276-63.316-17.014c-1.435-0.391-2.857-1.388-3.931-2.457c-28.893-28.815-57.9-57.519-86.382-86.733
		c-3.443-3.531-4.434-9.752-5.836-14.923c-7.241-26.698-14.254-53.459-21.32-80.204c-0.433-1.641-0.643-3.34-0.912-4.771
		c42.583,20.312,86.059,34.857,134.657,24.55c-20.515,27.673-31.03,58.948-37.219,93.81c17.1-4.773,33.445-8.012,48.725-13.977
		c15.169-5.924,29.268-14.59,43.67-21.97c-9.696,46.616,4.354,89.818,25.334,132.494C394.462,672.344,383.471,669.489,372.5,666.563
		z M388.039,694.555c-8.208,2.316-15.938,4.623-23.75,6.604c-1.688,0.428-4.307,0.37-5.42-0.645
		c-6.213-5.669-12.094-11.7-18.089-17.608c0.182-0.232,0.363-0.466,0.544-0.698C356.744,686.282,372.164,690.359,388.039,694.555z
		 M260.706,636.717c-7.467-2.141-15.229-4.288-22.919-6.668c-0.993-0.307-2.011-1.697-2.342-2.791
		c-2.235-7.376-4.289-14.807-6.404-22.232C239.702,615.695,250.209,626.211,260.706,636.717z M306.071,219.246
		c3.553-3.468,9.658-4.683,14.814-6.086c26.866-7.31,53.805-14.353,80.729-21.446c1.258-0.331,2.622-0.261,4.865-0.461
		c-11.631,21.068-19.338,42.604-24.505,65.049c-5.242,22.768-6.284,45.656-0.84,68.99c-46.576-27.627-55.655-29.238-92.61-36.276
		c5.605,33.161,16.094,63.97,36.462,92.275c-48.388-9.848-91.307,3.999-133.883,24.835c0.479-2.599,0.708-4.56,1.209-6.45
		c7.938-29.975,15.887-59.945,23.945-89.888c0.382-1.417,1.638-2.706,2.736-3.806C247.933,276.981,276.755,247.861,306.071,219.246z
		 M229.178,261.811c2.165-8.151,4.307-16.295,6.547-24.413c0.183-0.664,0.932-1.485,1.575-1.66
		c8.266-2.267,16.561-4.43,24.778-6.602C251.059,240.081,240.119,250.946,229.178,261.811z M341.208,183.873
		c6.762-6.789,12.594-12.79,18.655-18.55c0.792-0.751,2.852-0.616,4.174-0.288c7.487,1.856,14.929,3.896,22.386,5.873
		c0.042,0.312,0.083,0.624,0.125,0.936C371.858,175.741,357.168,179.639,341.208,183.873z M556.096,216.258
		c1.416,0.381,2.67,1.711,3.779,2.819c28.869,28.835,57.871,57.542,86.354,86.754c3.584,3.675,4.982,9.881,6.423,15.178
		c7.262,26.715,14.207,53.518,21.239,80.295c0.348,1.322,0.486,2.697,0.861,4.846c-42.422-20.751-85.359-34.703-134.17-24.798
		c20.95-28.109,30.937-59.233,36.983-92.558c-33.661,5.457-64.782,16.323-92.823,36.787c10.424-48.41-4.488-91.519-24.576-134.423
		c2.111,0.402,4.086,0.655,5.994,1.16C496.15,200.254,526.139,208.199,556.096,216.258z M479.118,171.832
		c0.106-0.314,0.214-0.628,0.319-0.942c7.455-1.987,14.889-4.069,22.387-5.877c1.412-0.341,3.603-0.146,4.555,0.743
		c5.902,5.507,11.552,11.283,16.857,17.736C508.53,179.604,493.824,175.717,479.118,171.832z M604.241,229.233
		c8.264,2.223,16.888,4.543,25.433,6.841c2.354,8.762,4.67,17.387,6.967,25.938C625.749,250.993,614.928,240.043,604.241,229.233z
		 M700.849,364.896c-1.915,7.49-3.972,14.946-6.36,23.838c-4.291-16.161-8.254-31.083-12.216-46.003
		c0.287-0.285,0.573-0.569,0.859-0.854c5.991,6.16,12.069,12.241,17.868,18.578C701.723,361.245,701.217,363.455,700.849,364.896z
		 M699.967,507.478c-5.376,6.038-11.146,11.724-17.737,16.88c3.966-14.979,7.931-29.959,12.258-46.308
		c2.355,8.819,4.483,16.259,6.247,23.783C701.15,503.601,701.033,506.279,699.967,507.478z M672.087,298.353
		c-3.229-3.565-3.953-9.567-5.37-14.578c-3.728-13.182-7.202-26.433-11.066-40.729c24.464,6.542,48.086,12.859,72.645,19.425
		c-6.458,24.177-12.887,48.248-19.553,73.207C695.987,322.841,683.564,311.025,672.087,298.353z M501.801,405.607
		c2.457-6.371,8.473-6.217,13.293-7.132c7.48-1.42,15.218-2.538,22.775-2.2c7.657,0.342,15.18,3.009,22.848,3.94
		c13.609,1.654,25.805,7.3,37.753,13.272c11.501,5.75,22.396,12.716,34.474,19.674c-11.574,6.729-22.02,13.503-33.088,19.034
		c-10.67,5.331-21.646,10.621-33.088,13.707c-18.885,5.091-38.314,5.678-57.611,1.309c-1.892-0.428-3.582-1.743-5.367-2.646
		c29.291-0.93,52.938-14.603,76.056-30.111C555.913,419.19,531.463,405.637,501.801,405.607z M464.015,294.97
		c6.062,19.548,8.498,39.614,2.993,59.895c-0.678,2.495-1.578,4.928-3.011,7.242c-2.421-27.204-14.269-50.187-29.534-71.659
		c-9.127,11.393-29.427,44.342-28.958,74.983c-3.442-2.778-6.228-4.931-6.495-9.829c-0.412-7.567-2.66-15.057-2.842-22.611
		c-0.614-25.528,7.896-48.623,20.122-70.566c5.226-9.382,10.587-18.688,16.303-28.765
		C445.588,253.758,457.271,273.218,464.015,294.97z M362.005,464.529c-1.782,0.91-3.472,2.17-5.363,2.673
		c-13.541,3.604-27.583,3.808-41.11,2.055c-12.014-1.556-24.045-5.65-35.188-10.605c-16.06-7.142-31.323-16.073-48.099-24.856
		c8.667-5.198,15.75-10.135,23.415-13.887c12.973-6.351,25.986-12.898,39.592-17.597c13.18-4.551,27.077-7.703,41.294-6.173
		c7.159,0.769,14.245,2.499,21.249,4.252c2.357,0.59,4.362,2.589,6.422,4.538c-28.32,1.928-52.174,14.276-74.876,29.562
		C311.287,449.693,334.078,462.572,362.005,464.529z M202.721,271.122c-1.872,6.961-3.819,13.914-6.09,20.753
		c-0.96,2.891-2.309,5.986-4.375,8.123c-11.396,11.782-23.068,23.298-35.287,35.546c-6.626-24.829-13.051-48.902-19.5-73.067
		c24.483-6.556,48.029-12.859,72.447-19.397C207.41,252.887,205.165,262.031,202.721,271.122z M171.316,388.471
		c-2.441-8.665-4.727-16.368-6.699-24.15c-0.367-1.451-0.015-3.714,0.934-4.765c5.529-6.126,11.334-12.003,18.027-17.167
		C179.569,357.455,175.561,372.522,171.316,388.471z M183.549,524.385c-0.228,0.182-0.456,0.365-0.684,0.547
		c-5.902-5.977-11.883-11.879-17.619-18.01c-0.847-0.904-1.024-3.022-0.676-4.361c2.029-7.807,4.308-15.551,6.75-24.197
		C175.539,494.236,179.544,509.311,183.549,524.385z M145.24,380.385c4.101,15.419,8.221,30.907,12.297,46.232
		c-3.575,2.332-6.912,4.508-10.295,6.715c3.5,2.255,6.76,4.355,10.335,6.658c-4.095,15.437-8.212,30.955-12.257,46.205
		c-17.693-17.702-35.396-35.413-52.996-53.021C109.63,415.909,127.354,398.229,145.24,380.385z M156.96,531.385
		c12.751,12.756,25.434,24.786,37.202,37.654c3.12,3.412,3.632,9.339,4.99,14.209c3.581,12.847,6.968,25.748,10.724,39.715
		c-24.483-6.566-47.903-12.848-72.207-19.365C144.076,579.61,150.438,555.801,156.96,531.385z M402.665,574.066
		c-4.99-15.148-7.866-30.66-6.535-46.651c0.555-6.667,1.792-13.337,3.447-19.819c0.584-2.291,3.337-4.027,6.065-7.107
		c-1.052,31.236,13.242,55.595,28.464,79.895c15.801-23.223,28.628-46.949,29.186-75.426c0.465-0.095,0.929-0.189,1.394-0.283
		c0.937,2.783,2.147,5.508,2.762,8.359c3.657,16.996,2.991,33.84-1.293,50.717c-5.551,21.867-16.106,41.33-27.793,60.318
		c-1.661,2.701-3.323,5.4-5.425,8.814C420.78,613.758,409.566,595.023,402.665,574.066z M663.085,595.551
		c1.931-7.312,3.938-14.607,6.063-21.863c0.529-1.809,1.27-3.809,2.542-5.102c12.118-12.322,24.373-24.512,37.097-37.247
		c6.554,24.519,12.898,48.258,19.312,72.255c-24.218,6.498-47.651,12.789-72.034,19.332
		C658.521,613.327,660.743,604.422,663.085,595.551z M720.433,486.185c-4.009-15.099-8.095-30.485-12.252-46.146
		c3.312-2.15,6.69-4.348,10.323-6.706c-3.373-2.203-6.701-4.378-10.273-6.711c4.051-15.27,8.149-30.716,12.054-45.436
		c17.384,17.399,35.173,35.2,52.585,52.626C755.869,450.791,738.149,468.488,720.433,486.185z M739.902,241.342
		c-22.232-5.976-43.582-11.729-64.939-17.446c-7.15-1.914-14.297-3.859-21.504-5.541c-3.197-0.746-5.143-2.294-5.985-5.5
		c-7.028-26.742-14.112-53.47-21.175-80.203c-0.488-1.844-0.941-3.695-1.671-6.565C672.111,155.62,710.121,193.628,739.902,241.342z
		 M603.558,205.072c-10.563-2.776-21.12-5.584-31.642-8.52c-1.641-0.458-3.35-1.381-4.559-2.567
		c-12.232-12.008-24.365-24.116-37.072-36.738c24.686-6.602,48.686-13.021,73.058-19.542c6.5,24.272,12.784,47.739,19.321,72.154
		C615.952,208.183,609.736,206.696,603.558,205.072z M527.471,83.039c26.327,7.469,51.722,17.345,77.002,30.684
		c-15.837,4.26-30.484,8.229-45.149,12.136c-14.636,3.899-29.271,7.812-43.964,11.489c-1.701,0.427-4.429,0.051-5.57-1.077
		c-21.42-21.172-42.674-42.513-63.949-63.833c-0.209-0.21-0.231-0.608-0.413-1.121C473.496,71.658,500.783,75.466,527.471,83.039z
		 M485.451,145.579c-14.526,3.761-29.096,7.584-43.713,11.215c-1.123,0.278-3.057-0.425-3.798-1.335
		c-1.771-2.174-3.054-4.745-4.88-7.714c-2.202,3.355-4.295,6.542-6.587,10.034c-15.324-4.083-30.748-8.195-45.873-12.226
		c17.485-17.436,34.965-34.866,52.47-52.319C450.27,110.421,467.727,127.867,485.451,145.579z M421.063,71.34
		c-22.069,22.075-43.461,43.528-64.987,64.848c-1.138,1.127-3.607,1.91-5.111,1.52c-28.634-7.434-57.217-15.063-85.802-22.681
		c-0.933-0.249-1.783-0.809-3.481-1.599C311.902,87.874,363.948,71.802,421.063,71.34z M262.4,137.733
		c24.061,6.418,48.146,12.842,73.174,19.519c-6.671,6.541-13.075,12.807-19.46,19.091c-2.702,2.66-5.626,5.147-7.993,8.083
		c-7.277,9.025-16.595,13.611-28.009,15.767c-12.202,2.305-24.065,6.397-37.105,9.993
		C249.613,185.506,255.893,162.046,262.4,137.733z M241.104,126.331c-7.723,29.216-15.314,57.813-22.807,86.437
		c-0.854,3.263-2.746,4.747-5.917,5.578c-28.458,7.466-56.884,15.056-85.424,22.637
		C143.726,209.023,189.499,156.702,241.104,126.331z M114,263.219c3.482,13.127,6.965,26.255,10.446,39.384
		c4.289,16.173,8.634,32.33,12.767,48.543c0.382,1.497-0.018,3.915-1.032,4.939c-21.308,21.55-42.756,42.961-65.379,65.604
		C71.854,364.226,87.67,312.445,114,263.219z M70.784,445.384c1.977,1.877,2.983,2.789,3.942,3.747
		c20.158,20.15,40.271,40.344,60.516,60.405c2.31,2.289,2.83,4.112,1.939,7.376c-7.879,28.858-15.483,57.791-23.169,86.703
		C87.633,554.33,71.871,502.553,70.784,445.384z M125.457,624.666c31.209,8.299,61.285,16.296,91.323,24.284
		c7.991,30.006,15.961,59.938,24.352,91.44C193.014,710.627,155.135,672.662,125.457,624.666z M242.864,656.115
		c9.455,2.371,18.224,4.473,26.934,6.789c6.806,1.809,13.653,3.573,20.262,5.963c3.67,1.328,7.426,3.338,10.222,6.004
		c11.462,10.936,22.569,22.242,34.482,34.082c-24.773,6.641-48.663,13.046-72.545,19.448
		C255.828,704.531,249.459,680.748,242.864,656.115z M262.7,751.994c8.021-2.193,16.029-4.44,24.068-6.566
		c21.297-5.633,42.599-11.249,63.936-16.727c1.327-0.342,3.479,0.043,4.394,0.949c21.656,21.475,43.195,43.066,64.744,64.646
		c0.223,0.225,0.295,0.599,0.666,1.389C364.282,793.902,312.056,778.897,262.7,751.994z M380.106,720.549
		c15.332-4.044,30.736-8.109,45.94-12.119c2.468,3.742,4.687,7.105,6.97,10.569c2.397-3.672,4.501-6.893,6.877-10.531
		c15.185,4.015,30.448,8.05,44.577,11.788c-17.258,17.207-34.998,34.896-52.501,52.348
		C415.604,756.178,397.976,738.484,380.106,720.549z M445.086,795.676c1.025-1.265,1.748-2.335,2.643-3.23
		c20.663-20.689,41.375-41.326,61.969-62.082c1.994-2.011,3.631-2.482,6.375-1.73c22.771,6.242,45.592,12.32,68.406,18.418
		c6.107,1.633,12.243,3.162,18.365,4.738c0.072,0.527,0.144,1.055,0.216,1.581C553.756,778.903,501.561,793.906,445.086,795.676z
		 M603.54,728.401c-23.784-6.372-47.685-12.774-72.608-19.452c5.902-5.801,11.262-11.06,16.609-16.328
		c1.671-1.648,3.313-3.322,4.973-4.982c18.996-19.006,19.01-18.943,45.229-25.066c8.045-1.879,15.986-4.199,25.197-6.643
		C616.355,680.525,609.998,704.273,603.54,728.401z M624.644,740.391c8.317-31.271,16.313-61.334,24.318-91.428
		c30.079-8.003,60.148-16.003,91.407-24.318C710.668,672.727,672.713,710.629,624.644,740.391z M751.747,603.613
		c-5.511-20.732-11.021-41.467-16.533-62.199c-2.31-8.686-4.696-17.352-6.862-26.074c-0.315-1.271-0.092-3.311,0.736-4.143
		c21.5-21.609,43.113-43.104,64.717-64.605c0.067-0.066,0.307,0.041,1.084,0.172C793.953,502.562,778.394,554.393,751.747,603.613z"
		/>
	<path d="M310.427,610.752c-1.996-13.83,14.192-27.053,24.875-27.518c15.213-0.664,28.488,13.69,28.203,26.583
		c-0.349,15.743-10.712,26.173-26.66,26.818C324.243,637.145,308.873,625.189,310.427,610.752z"/>
	<path d="M255.877,555.33c-15.875,1.514-26.984-13.15-26.61-26.068c0.453-15.609,11.435-26.23,26.401-26.92
		c12.945-0.598,27.96,12.674,26.798,28.325C281.434,544.576,270.816,555.328,255.877,555.33z"/>
	<path d="M245.811,310.424c14.322,0.015,26.83,12.158,26.655,26.168c-0.2,16.035-10.95,26.711-27.034,26.917
		c-13.079,0.168-27.217-10.959-26.276-28.423C219.732,324.392,232.843,308.874,245.811,310.424z"/>
	<path d="M310.424,246.676c-2.167-13.279,14.054-27.923,26.493-27.59c13.581,0.363,27.143,13.781,26.592,27.14
		c-0.634,15.391-10.827,25.933-27.171,26.293C323.919,272.794,308.936,260.994,310.424,246.676z"/>
	<path d="M555.331,610.845c1.466,14.229-13.495,26.095-25.975,25.773c-16.382-0.421-26.454-10.829-27.038-25.81
		c-0.57-14.616,13.07-27.836,27.689-27.587C541.027,583.41,557.426,597.015,555.331,610.845z"/>
	<path d="M610.245,555.33c-15.798,0-26.345-10.63-26.858-25.926c-0.484-14.443,13.011-27.643,26.906-27.029
		c14.877,0.654,25.912,11.487,26.256,27.623C636.798,541.729,625.449,556.951,610.245,555.33z"/>
	<path d="M646.354,337.704c1.489,14.403-13.576,26.092-25.887,25.854c-16.168-0.313-27.132-10.993-27.193-27.378
		c-0.053-14.1,12.568-25.294,27.631-25.92C631.816,309.806,648.389,323.643,646.354,337.704z"/>
	<path d="M555.331,246.743c1.466,14.23-13.493,26.094-25.975,25.773c-16.382-0.421-26.454-10.829-27.038-25.809
		c-0.57-14.616,13.068-27.837,27.689-27.587C541.029,219.309,557.426,232.916,555.331,246.743z"/>
</g>
</svg>
